<svg width="31" height="27" viewBox="0 0 31 27" fill="none" xmlns="http://www.w3.org/2000/svg">
<path d="M9.12998 26.5C11.5329 26.5804 13.9275 26.1783 16.1723 25.3175C18.4171 24.4567 20.4666 23.1546 22.1997 21.4882C23.9327 19.8218 25.3141 17.8249 26.2623 15.6156C27.2105 13.4062 27.7061 11.0292 27.72 8.62499C28.8212 7.26229 29.6388 5.69322 30.125 4.00999C30.1613 3.87701 30.1583 3.73636 30.1165 3.605C30.0747 3.47364 29.9959 3.35716 29.8894 3.26959C29.783 3.18202 29.6534 3.12709 29.5165 3.11141C29.3795 3.09574 29.241 3.11999 29.1175 3.18124C28.5414 3.45856 27.8928 3.54813 27.2631 3.43735C26.6334 3.32657 26.0543 3.02102 25.6075 2.56374C25.037 1.93906 24.347 1.43523 23.5782 1.08211C22.8095 0.728997 21.9777 0.533774 21.1321 0.508013C20.2866 0.482252 19.4444 0.626477 18.6556 0.932142C17.8668 1.23781 17.1474 1.6987 16.54 2.28749C15.7083 3.09294 15.0991 4.09984 14.7717 5.21034C14.4442 6.32084 14.4096 7.49717 14.6712 8.62499C9.22748 8.94999 5.48998 6.36624 2.49998 2.82374C2.41015 2.72202 2.29265 2.64866 2.16182 2.61261C2.03099 2.57656 1.89249 2.57939 1.76324 2.62075C1.63399 2.66211 1.51958 2.74021 1.43399 2.84551C1.34839 2.95082 1.29531 3.07877 1.28123 3.21374C0.711614 6.37343 1.12251 9.63176 2.45873 12.5511C3.79495 15.4705 5.9925 17.911 8.75623 19.545C6.90314 21.6702 4.30081 22.9976 1.49248 23.25C1.34202 23.2749 1.20313 23.3463 1.09525 23.4541C0.987363 23.5619 0.915882 23.7007 0.890809 23.8512C0.865737 24.0016 0.888327 24.1561 0.955419 24.2931C1.02251 24.43 1.13075 24.5426 1.26498 24.615C3.7082 25.836 6.39873 26.4808 9.12998 26.5Z" fill="#231F20"/>
</svg>
